<svg width="178" height="48" viewBox="0 0 178 48" fill="none" xmlns="http://www.w3.org/2000/svg">
<rect width="178" height="48" rx="12" fill="white"/>
<path d="M17.83 20.79L16 21.456V25H14V20.05H14.015L19.283 18.132C19.527 18.039 19.793 17.992 20.065 18.001C20.6085 18.0146 21.1343 18.1971 21.5693 18.5233C22.0042 18.8495 22.3267 19.3031 22.492 19.821C22.678 20.404 22.848 20.798 23.002 21.003C23.4674 21.6236 24.0711 22.1272 24.7651 22.4739C25.459 22.8205 26.2243 23.0007 27 23V25C25.9673 25.0011 24.9472 24.7733 24.0131 24.3329C23.079 23.8925 22.2542 23.2504 21.598 22.453L21.017 25.75L23 27.67V35H21V29.014L18.95 27.027L18.003 31.325L11.109 30.11L11.457 28.14L16.381 29.008L17.83 20.79ZM21.5 17.5C20.9696 17.5 20.4609 17.2893 20.0858 16.9142C19.7107 16.5391 19.5 16.0304 19.5 15.5C19.5 14.9696 19.7107 14.4609 20.0858 14.0858C20.4609 13.7107 20.9696 13.5 21.5 13.5C22.0304 13.5 22.5391 13.7107 22.9142 14.0858C23.2893 14.4609 23.5 14.9696 23.5 15.5C23.5 16.0304 23.2893 16.5391 22.9142 16.9142C22.5391 17.2893 22.0304 17.5 21.5 17.5Z" fill="url(#paint0_linear_24_51)"/>
<path d="M47.7754 22.656C47.7754 23.1153 47.6671 23.5487 47.4504 23.956C47.2338 24.3633 46.8871 24.697 46.4104 24.957C45.9338 25.2083 45.3228 25.334 44.5774 25.334H42.9394V29H41.4574V19.965H44.5774C45.2708 19.965 45.8558 20.0863 46.3324 20.329C46.8178 20.563 47.1774 20.8837 47.4114 21.291C47.6541 21.6983 47.7754 22.1533 47.7754 22.656ZM44.5774 24.125C45.1408 24.125 45.5611 23.9993 45.8384 23.748C46.1158 23.488 46.2544 23.124 46.2544 22.656C46.2544 21.668 45.6954 21.174 44.5774 21.174H42.9394V24.125H44.5774ZM50.6709 22.877C50.8875 22.513 51.1735 22.2313 51.5289 22.032C51.8929 21.824 52.3219 21.72 52.8159 21.72V23.254H52.4389C51.8582 23.254 51.4162 23.4013 51.1129 23.696C50.8182 23.9907 50.6709 24.502 50.6709 25.23V29H49.1889V21.837H50.6709V22.877ZM57.2851 29.117C56.6091 29.117 55.9981 28.9653 55.4521 28.662C54.9061 28.35 54.4771 27.9167 54.1651 27.362C53.8531 26.7987 53.6971 26.1487 53.6971 25.412C53.6971 24.684 53.8575 24.0383 54.1781 23.475C54.4988 22.9117 54.9365 22.4783 55.4911 22.175C56.0458 21.8717 56.6655 21.72 57.3501 21.72C58.0348 21.72 58.6545 21.8717 59.2091 22.175C59.7638 22.4783 60.2015 22.9117 60.5221 23.475C60.8428 24.0383 61.0031 24.684 61.0031 25.412C61.0031 26.14 60.8385 26.7857 60.5091 27.349C60.1798 27.9123 59.7291 28.35 59.1571 28.662C58.5938 28.9653 57.9698 29.117 57.2851 29.117ZM57.2851 27.83C57.6665 27.83 58.0218 27.739 58.3511 27.557C58.6891 27.375 58.9621 27.102 59.1701 26.738C59.3781 26.374 59.4821 25.932 59.4821 25.412C59.4821 24.892 59.3825 24.4543 59.1831 24.099C58.9838 23.735 58.7195 23.462 58.3901 23.28C58.0608 23.098 57.7055 23.007 57.3241 23.007C56.9428 23.007 56.5875 23.098 56.2581 23.28C55.9375 23.462 55.6818 23.735 55.4911 24.099C55.3005 24.4543 55.2051 24.892 55.2051 25.412C55.2051 26.1833 55.4001 26.7813 55.7901 27.206C56.1888 27.622 56.6871 27.83 57.2851 27.83ZM65.4712 23.046H64.1452V29H62.6502V23.046H61.8052V21.837H62.6502V21.33C62.6502 20.5067 62.8668 19.9087 63.3002 19.536C63.7422 19.1547 64.4312 18.964 65.3672 18.964V20.199C64.9165 20.199 64.6002 20.2857 64.4182 20.459C64.2362 20.6237 64.1452 20.914 64.1452 21.33V21.837H65.4712V23.046ZM73.3496 25.243C73.3496 25.5117 73.3322 25.7543 73.2976 25.971H67.8246C67.8679 26.543 68.0802 27.0023 68.4616 27.349C68.8429 27.6957 69.3109 27.869 69.8656 27.869C70.6629 27.869 71.2262 27.5353 71.5556 26.868H73.1546C72.9379 27.5267 72.5436 28.0683 71.9716 28.493C71.4082 28.909 70.7062 29.117 69.8656 29.117C69.1809 29.117 68.5656 28.9653 68.0196 28.662C67.4822 28.35 67.0576 27.9167 66.7456 27.362C66.4422 26.7987 66.2906 26.1487 66.2906 25.412C66.2906 24.6753 66.4379 24.0297 66.7326 23.475C67.0359 22.9117 67.4562 22.4783 67.9936 22.175C68.5396 21.8717 69.1636 21.72 69.8656 21.72C70.5416 21.72 71.1439 21.8673 71.6726 22.162C72.2012 22.4567 72.6129 22.8727 72.9076 23.41C73.2022 23.9387 73.3496 24.5497 73.3496 25.243ZM71.8026 24.775C71.7939 24.229 71.5989 23.7913 71.2176 23.462C70.8362 23.1327 70.3639 22.968 69.8006 22.968C69.2892 22.968 68.8516 23.1327 68.4876 23.462C68.1236 23.7827 67.9069 24.2203 67.8376 24.775H71.8026ZM77.408 29.117C76.8447 29.117 76.3377 29.0173 75.887 28.818C75.445 28.61 75.094 28.3327 74.834 27.986C74.574 27.6307 74.4353 27.2363 74.418 26.803H75.952C75.978 27.1063 76.121 27.362 76.381 27.57C76.6497 27.7693 76.9833 27.869 77.382 27.869C77.798 27.869 78.1187 27.791 78.344 27.635C78.578 27.4703 78.695 27.2623 78.695 27.011C78.695 26.7423 78.565 26.543 78.305 26.413C78.0537 26.283 77.6507 26.14 77.096 25.984C76.5587 25.8367 76.121 25.6937 75.783 25.555C75.445 25.4163 75.1503 25.204 74.899 24.918C74.6563 24.632 74.535 24.255 74.535 23.787C74.535 23.4057 74.6477 23.059 74.873 22.747C75.0983 22.4263 75.419 22.175 75.835 21.993C76.2597 21.811 76.745 21.72 77.291 21.72C78.1057 21.72 78.76 21.928 79.254 22.344C79.7567 22.7513 80.0253 23.3103 80.06 24.021H78.578C78.552 23.7003 78.422 23.4447 78.188 23.254C77.954 23.0633 77.6377 22.968 77.239 22.968C76.849 22.968 76.55 23.0417 76.342 23.189C76.134 23.3363 76.03 23.5313 76.03 23.774C76.03 23.9647 76.0993 24.125 76.238 24.255C76.3767 24.385 76.5457 24.489 76.745 24.567C76.9443 24.6363 77.239 24.7273 77.629 24.84C78.149 24.9787 78.5737 25.1217 78.903 25.269C79.241 25.4077 79.5313 25.6157 79.774 25.893C80.0167 26.1703 80.1423 26.5387 80.151 26.998C80.151 27.4053 80.0383 27.7693 79.813 28.09C79.5877 28.4107 79.267 28.662 78.851 28.844C78.4437 29.026 77.9627 29.117 77.408 29.117ZM84.3523 29.117C83.789 29.117 83.282 29.0173 82.8313 28.818C82.3893 28.61 82.0383 28.3327 81.7783 27.986C81.5183 27.6307 81.3797 27.2363 81.3623 26.803H82.8963C82.9223 27.1063 83.0653 27.362 83.3253 27.57C83.594 27.7693 83.9277 27.869 84.3263 27.869C84.7423 27.869 85.063 27.791 85.2883 27.635C85.5223 27.4703 85.6393 27.2623 85.6393 27.011C85.6393 26.7423 85.5093 26.543 85.2493 26.413C84.998 26.283 84.595 26.14 84.0403 25.984C83.503 25.8367 83.0653 25.6937 82.7273 25.555C82.3893 25.4163 82.0947 25.204 81.8433 24.918C81.6007 24.632 81.4793 24.255 81.4793 23.787C81.4793 23.4057 81.592 23.059 81.8173 22.747C82.0427 22.4263 82.3633 22.175 82.7793 21.993C83.204 21.811 83.6893 21.72 84.2353 21.72C85.05 21.72 85.7043 21.928 86.1983 22.344C86.701 22.7513 86.9697 23.3103 87.0043 24.021H85.5223C85.4963 23.7003 85.3663 23.4447 85.1323 23.254C84.8983 23.0633 84.582 22.968 84.1833 22.968C83.7933 22.968 83.4943 23.0417 83.2863 23.189C83.0783 23.3363 82.9743 23.5313 82.9743 23.774C82.9743 23.9647 83.0437 24.125 83.1823 24.255C83.321 24.385 83.49 24.489 83.6893 24.567C83.8887 24.6363 84.1833 24.7273 84.5733 24.84C85.0933 24.9787 85.518 25.1217 85.8473 25.269C86.1853 25.4077 86.4757 25.6157 86.7183 25.893C86.961 26.1703 87.0867 26.5387 87.0953 26.998C87.0953 27.4053 86.9827 27.7693 86.7573 28.09C86.532 28.4107 86.2113 28.662 85.7953 28.844C85.388 29.026 84.907 29.117 84.3523 29.117ZM89.4507 20.888C89.182 20.888 88.9567 20.797 88.7747 20.615C88.5927 20.433 88.5017 20.2077 88.5017 19.939C88.5017 19.6703 88.5927 19.445 88.7747 19.263C88.9567 19.081 89.182 18.99 89.4507 18.99C89.7107 18.99 89.9317 19.081 90.1137 19.263C90.2957 19.445 90.3867 19.6703 90.3867 19.939C90.3867 20.2077 90.2957 20.433 90.1137 20.615C89.9317 20.797 89.7107 20.888 89.4507 20.888ZM90.1787 21.837V29H88.6967V21.837H90.1787ZM95.2314 29.117C94.5554 29.117 93.9444 28.9653 93.3984 28.662C92.8524 28.35 92.4234 27.9167 92.1114 27.362C91.7994 26.7987 91.6434 26.1487 91.6434 25.412C91.6434 24.684 91.8037 24.0383 92.1244 23.475C92.4451 22.9117 92.8827 22.4783 93.4374 22.175C93.9921 21.8717 94.6117 21.72 95.2964 21.72C95.9811 21.72 96.6007 21.8717 97.1554 22.175C97.7101 22.4783 98.1477 22.9117 98.4684 23.475C98.7891 24.0383 98.9494 24.684 98.9494 25.412C98.9494 26.14 98.7847 26.7857 98.4554 27.349C98.1261 27.9123 97.6754 28.35 97.1034 28.662C96.5401 28.9653 95.9161 29.117 95.2314 29.117ZM95.2314 27.83C95.6127 27.83 95.9681 27.739 96.2974 27.557C96.6354 27.375 96.9084 27.102 97.1164 26.738C97.3244 26.374 97.4284 25.932 97.4284 25.412C97.4284 24.892 97.3287 24.4543 97.1294 24.099C96.9301 23.735 96.6657 23.462 96.3364 23.28C96.0071 23.098 95.6517 23.007 95.2704 23.007C94.8891 23.007 94.5337 23.098 94.2044 23.28C93.8837 23.462 93.6281 23.735 93.4374 24.099C93.2467 24.4543 93.1514 24.892 93.1514 25.412C93.1514 26.1833 93.3464 26.7813 93.7364 27.206C94.1351 27.622 94.6334 27.83 95.2314 27.83ZM104.028 21.72C104.592 21.72 105.094 21.837 105.536 22.071C105.987 22.305 106.338 22.6517 106.589 23.111C106.841 23.5703 106.966 24.125 106.966 24.775V29H105.497V24.996C105.497 24.3547 105.337 23.865 105.016 23.527C104.696 23.1803 104.258 23.007 103.703 23.007C103.149 23.007 102.707 23.1803 102.377 23.527C102.057 23.865 101.896 24.3547 101.896 24.996V29H100.414V21.837H101.896V22.656C102.139 22.3613 102.447 22.1317 102.819 21.967C103.201 21.8023 103.604 21.72 104.028 21.72ZM108.363 25.386C108.363 24.6667 108.51 24.0297 108.805 23.475C109.108 22.9203 109.516 22.4913 110.027 22.188C110.547 21.876 111.119 21.72 111.743 21.72C112.306 21.72 112.796 21.8327 113.212 22.058C113.637 22.2747 113.975 22.5477 114.226 22.877V21.837H115.721V29H114.226V27.934C113.975 28.272 113.632 28.5537 113.199 28.779C112.766 29.0043 112.272 29.117 111.717 29.117C111.102 29.117 110.538 28.961 110.027 28.649C109.516 28.3283 109.108 27.8863 108.805 27.323C108.51 26.751 108.363 26.1053 108.363 25.386ZM114.226 25.412C114.226 24.918 114.122 24.489 113.914 24.125C113.715 23.761 113.45 23.4837 113.121 23.293C112.792 23.1023 112.436 23.007 112.055 23.007C111.674 23.007 111.318 23.1023 110.989 23.293C110.66 23.475 110.391 23.748 110.183 24.112C109.984 24.4673 109.884 24.892 109.884 25.386C109.884 25.88 109.984 26.3133 110.183 26.686C110.391 27.0587 110.66 27.3447 110.989 27.544C111.327 27.7347 111.682 27.83 112.055 27.83C112.436 27.83 112.792 27.7347 113.121 27.544C113.45 27.3533 113.715 27.076 113.914 26.712C114.122 26.3393 114.226 25.906 114.226 25.412ZM119.149 19.38V29H117.667V19.38H119.149ZM130.309 19.965V21.174H127.904V29H126.422V21.174H124.004V19.965H130.309ZM133.292 22.877C133.509 22.513 133.795 22.2313 134.15 22.032C134.514 21.824 134.943 21.72 135.437 21.72V23.254H135.06C134.479 23.254 134.037 23.4013 133.734 23.696C133.439 23.9907 133.292 24.502 133.292 25.23V29H131.81V21.837H133.292V22.877ZM136.305 25.386C136.305 24.6667 136.453 24.0297 136.747 23.475C137.051 22.9203 137.458 22.4913 137.969 22.188C138.489 21.876 139.061 21.72 139.685 21.72C140.249 21.72 140.738 21.8327 141.154 22.058C141.579 22.2747 141.917 22.5477 142.168 22.877V21.837H143.663V29H142.168V27.934C141.917 28.272 141.575 28.5537 141.141 28.779C140.708 29.0043 140.214 29.117 139.659 29.117C139.044 29.117 138.481 28.961 137.969 28.649C137.458 28.3283 137.051 27.8863 136.747 27.323C136.453 26.751 136.305 26.1053 136.305 25.386ZM142.168 25.412C142.168 24.918 142.064 24.489 141.856 24.125C141.657 23.761 141.393 23.4837 141.063 23.293C140.734 23.1023 140.379 23.007 139.997 23.007C139.616 23.007 139.261 23.1023 138.931 23.293C138.602 23.475 138.333 23.748 138.125 24.112C137.926 24.4673 137.826 24.892 137.826 25.386C137.826 25.88 137.926 26.3133 138.125 26.686C138.333 27.0587 138.602 27.3447 138.931 27.544C139.269 27.7347 139.625 27.83 139.997 27.83C140.379 27.83 140.734 27.7347 141.063 27.544C141.393 27.3533 141.657 27.076 141.856 26.712C142.064 26.3393 142.168 25.906 142.168 25.412ZM146.364 20.888C146.095 20.888 145.87 20.797 145.688 20.615C145.506 20.433 145.415 20.2077 145.415 19.939C145.415 19.6703 145.506 19.445 145.688 19.263C145.87 19.081 146.095 18.99 146.364 18.99C146.624 18.99 146.845 19.081 147.027 19.263C147.209 19.445 147.3 19.6703 147.3 19.939C147.3 20.2077 147.209 20.433 147.027 20.615C146.845 20.797 146.624 20.888 146.364 20.888ZM147.092 21.837V29H145.61V21.837H147.092ZM152.652 21.72C153.215 21.72 153.718 21.837 154.16 22.071C154.61 22.305 154.961 22.6517 155.213 23.111C155.464 23.5703 155.59 24.125 155.59 24.775V29H154.121V24.996C154.121 24.3547 153.96 23.865 153.64 23.527C153.319 23.1803 152.881 23.007 152.327 23.007C151.772 23.007 151.33 23.1803 151.001 23.527C150.68 23.865 150.52 24.3547 150.52 24.996V29H149.038V21.837H150.52V22.656C150.762 22.3613 151.07 22.1317 151.443 21.967C151.824 21.8023 152.227 21.72 152.652 21.72ZM164.045 25.243C164.045 25.5117 164.028 25.7543 163.993 25.971H158.52C158.563 26.543 158.776 27.0023 159.157 27.349C159.538 27.6957 160.006 27.869 160.561 27.869C161.358 27.869 161.922 27.5353 162.251 26.868H163.85C163.633 27.5267 163.239 28.0683 162.667 28.493C162.104 28.909 161.402 29.117 160.561 29.117C159.876 29.117 159.261 28.9653 158.715 28.662C158.178 28.35 157.753 27.9167 157.441 27.362C157.138 26.7987 156.986 26.1487 156.986 25.412C156.986 24.6753 157.133 24.0297 157.428 23.475C157.731 22.9117 158.152 22.4783 158.689 22.175C159.235 21.8717 159.859 21.72 160.561 21.72C161.237 21.72 161.839 21.8673 162.368 22.162C162.897 22.4567 163.308 22.8727 163.603 23.41C163.898 23.9387 164.045 24.5497 164.045 25.243ZM162.498 24.775C162.489 24.229 162.294 23.7913 161.913 23.462C161.532 23.1327 161.059 22.968 160.496 22.968C159.985 22.968 159.547 23.1327 159.183 23.462C158.819 23.7827 158.602 24.2203 158.533 24.775H162.498ZM166.985 22.877C167.202 22.513 167.488 22.2313 167.843 22.032C168.207 21.824 168.636 21.72 169.13 21.72V23.254H168.753C168.173 23.254 167.731 23.4013 167.427 23.696C167.133 23.9907 166.985 24.502 166.985 25.23V29H165.503V21.837H166.985V22.877Z" fill="url(#paint1_linear_24_51)"/>
<defs>
<linearGradient id="paint0_linear_24_51" x1="11.109" y1="24.25" x2="25.3505" y2="21.0694" gradientUnits="userSpaceOnUse">
<stop stop-color="#FF52AF"/>
<stop offset="1" stop-color="#9F53FF"/>
</linearGradient>
<linearGradient id="paint1_linear_24_51" x1="40" y1="24" x2="65.1813" y2="-25.4571" gradientUnits="userSpaceOnUse">
<stop stop-color="#FF52AF"/>
<stop offset="1" stop-color="#9F53FF"/>
</linearGradient>
</defs>
</svg>
