<svg width="169" height="48" viewBox="0 0 169 48" fill="none" xmlns="http://www.w3.org/2000/svg">
<rect width="169" height="48" rx="12" fill="white"/>
<path d="M20 34C14.477 34 10 29.523 10 24C10 18.477 14.477 14 20 14C25.523 14 30 18.477 30 24C30 29.523 25.523 34 20 34ZM18.622 20.415C18.5618 20.3748 18.4919 20.3518 18.4196 20.3482C18.3473 20.3447 18.2755 20.3608 18.2116 20.3949C18.1478 20.4289 18.0944 20.4797 18.0572 20.5417C18.0199 20.6037 18.0001 20.6747 18 20.747V27.253C18.0001 27.3253 18.0199 27.3963 18.0572 27.4583C18.0944 27.5203 18.1478 27.5711 18.2116 27.6051C18.2755 27.6392 18.3473 27.6553 18.4196 27.6518C18.4919 27.6482 18.5618 27.6252 18.622 27.585L23.501 24.333C23.5559 24.2965 23.6009 24.247 23.632 24.1889C23.6631 24.1308 23.6794 24.0659 23.6794 24C23.6794 23.9341 23.6631 23.8692 23.632 23.8111C23.6009 23.753 23.5559 23.7035 23.501 23.667L18.622 20.415Z" fill="url(#paint0_linear_24_45)"/>
<path d="M48.2286 19.965V29H46.7466V25.048H42.4956V29H41.0136V19.965H42.4956V23.839H46.7466V19.965H48.2286ZM50.9336 20.888C50.6649 20.888 50.4396 20.797 50.2576 20.615C50.0756 20.433 49.9846 20.2077 49.9846 19.939C49.9846 19.6703 50.0756 19.445 50.2576 19.263C50.4396 19.081 50.6649 18.99 50.9336 18.99C51.1936 18.99 51.4146 19.081 51.5966 19.263C51.7786 19.445 51.8696 19.6703 51.8696 19.939C51.8696 20.2077 51.7786 20.433 51.5966 20.615C51.4146 20.797 51.1936 20.888 50.9336 20.888ZM51.6616 21.837V29H50.1796V21.837H51.6616ZM56.4933 21.72C57.048 21.72 57.5377 21.8327 57.9623 22.058C58.3957 22.2747 58.7337 22.5477 58.9763 22.877V21.837H60.4713V29.117C60.4713 29.7757 60.3327 30.3607 60.0553 30.872C59.778 31.392 59.375 31.7993 58.8463 32.094C58.3263 32.3887 57.7023 32.536 56.9743 32.536C56.0037 32.536 55.1977 32.3063 54.5563 31.847C53.915 31.3963 53.551 30.781 53.4643 30.001H54.9333C55.046 30.3737 55.2843 30.6727 55.6483 30.898C56.021 31.132 56.463 31.249 56.9743 31.249C57.5723 31.249 58.0533 31.067 58.4173 30.703C58.79 30.339 58.9763 29.8103 58.9763 29.117V27.921C58.725 28.259 58.3827 28.545 57.9493 28.779C57.5247 29.0043 57.0393 29.117 56.4933 29.117C55.8693 29.117 55.2973 28.961 54.7773 28.649C54.266 28.3283 53.8587 27.8863 53.5553 27.323C53.2607 26.751 53.1133 26.1053 53.1133 25.386C53.1133 24.6667 53.2607 24.0297 53.5553 23.475C53.8587 22.9203 54.266 22.4913 54.7773 22.188C55.2973 21.876 55.8693 21.72 56.4933 21.72ZM58.9763 25.412C58.9763 24.918 58.8723 24.489 58.6643 24.125C58.465 23.761 58.2007 23.4837 57.8713 23.293C57.542 23.1023 57.1867 23.007 56.8053 23.007C56.424 23.007 56.0687 23.1023 55.7393 23.293C55.41 23.475 55.1413 23.748 54.9333 24.112C54.734 24.4673 54.6343 24.892 54.6343 25.386C54.6343 25.88 54.734 26.3133 54.9333 26.686C55.1413 27.0587 55.41 27.3447 55.7393 27.544C56.0773 27.7347 56.4327 27.83 56.8053 27.83C57.1867 27.83 57.542 27.7347 57.8713 27.544C58.2007 27.3533 58.465 27.076 58.6643 26.712C58.8723 26.3393 58.9763 25.906 58.9763 25.412ZM66.1229 21.72C66.6689 21.72 67.1542 21.837 67.5789 22.071C68.0122 22.305 68.3502 22.6517 68.5929 23.111C68.8442 23.5703 68.9699 24.125 68.9699 24.775V29H67.5009V24.996C67.5009 24.3547 67.3405 23.865 67.0199 23.527C66.6992 23.1803 66.2615 23.007 65.7069 23.007C65.1522 23.007 64.7102 23.1803 64.3809 23.527C64.0602 23.865 63.8999 24.3547 63.8999 24.996V29H62.4179V19.38H63.8999V22.669C64.1512 22.3657 64.4675 22.1317 64.8489 21.967C65.2389 21.8023 65.6635 21.72 66.1229 21.72ZM81.2312 30.638L79.6452 28.922C79.2552 29.0347 78.8262 29.091 78.3582 29.091C77.5175 29.091 76.7419 28.896 76.0312 28.506C75.3292 28.1073 74.7702 27.557 74.3542 26.855C73.9469 26.1443 73.7432 25.347 73.7432 24.463C73.7432 23.579 73.9469 22.786 74.3542 22.084C74.7702 21.382 75.3292 20.836 76.0312 20.446C76.7419 20.0473 77.5175 19.848 78.3582 19.848C79.2075 19.848 79.9832 20.0473 80.6852 20.446C81.3959 20.836 81.9549 21.382 82.3622 22.084C82.7695 22.786 82.9732 23.579 82.9732 24.463C82.9732 25.295 82.7912 26.049 82.4272 26.725C82.0719 27.3923 81.5779 27.9297 80.9452 28.337L83.1162 30.638H81.2312ZM75.2642 24.463C75.2642 25.1303 75.3942 25.7197 75.6542 26.231C75.9229 26.7337 76.2912 27.1237 76.7592 27.401C77.2272 27.6697 77.7602 27.804 78.3582 27.804C78.9562 27.804 79.4892 27.6697 79.9572 27.401C80.4252 27.1237 80.7892 26.7337 81.0492 26.231C81.3179 25.7197 81.4522 25.1303 81.4522 24.463C81.4522 23.7957 81.3179 23.2107 81.0492 22.708C80.7892 22.2053 80.4252 21.8197 79.9572 21.551C79.4892 21.2823 78.9562 21.148 78.3582 21.148C77.7602 21.148 77.2272 21.2823 76.7592 21.551C76.2912 21.8197 75.9229 22.2053 75.6542 22.708C75.3942 23.2107 75.2642 23.7957 75.2642 24.463ZM90.9566 21.837V29H89.4746V28.155C89.2406 28.4497 88.933 28.6837 88.5516 28.857C88.179 29.0217 87.7803 29.104 87.3556 29.104C86.7923 29.104 86.2853 28.987 85.8346 28.753C85.3926 28.519 85.0416 28.1723 84.7816 27.713C84.5303 27.2537 84.4046 26.699 84.4046 26.049V21.837H85.8736V25.828C85.8736 26.4693 86.034 26.9633 86.3546 27.31C86.6753 27.648 87.113 27.817 87.6676 27.817C88.2223 27.817 88.66 27.648 88.9806 27.31C89.31 26.9633 89.4746 26.4693 89.4746 25.828V21.837H90.9566ZM92.418 25.386C92.418 24.6667 92.5653 24.0297 92.86 23.475C93.1633 22.9203 93.5707 22.4913 94.082 22.188C94.602 21.876 95.174 21.72 95.798 21.72C96.3613 21.72 96.851 21.8327 97.267 22.058C97.6917 22.2747 98.0297 22.5477 98.281 22.877V21.837H99.776V29H98.281V27.934C98.0297 28.272 97.6873 28.5537 97.254 28.779C96.8207 29.0043 96.3267 29.117 95.772 29.117C95.1567 29.117 94.5933 28.961 94.082 28.649C93.5707 28.3283 93.1633 27.8863 92.86 27.323C92.5653 26.751 92.418 26.1053 92.418 25.386ZM98.281 25.412C98.281 24.918 98.177 24.489 97.969 24.125C97.7697 23.761 97.5053 23.4837 97.176 23.293C96.8467 23.1023 96.4913 23.007 96.11 23.007C95.7287 23.007 95.3733 23.1023 95.044 23.293C94.7147 23.475 94.446 23.748 94.238 24.112C94.0387 24.4673 93.939 24.892 93.939 25.386C93.939 25.88 94.0387 26.3133 94.238 26.686C94.446 27.0587 94.7147 27.3447 95.044 27.544C95.382 27.7347 95.7373 27.83 96.11 27.83C96.4913 27.83 96.8467 27.7347 97.176 27.544C97.5053 27.3533 97.7697 27.076 97.969 26.712C98.177 26.3393 98.281 25.906 98.281 25.412ZM103.205 19.38V29H101.723V19.38H103.205ZM105.904 20.888C105.636 20.888 105.41 20.797 105.228 20.615C105.046 20.433 104.955 20.2077 104.955 19.939C104.955 19.6703 105.046 19.445 105.228 19.263C105.41 19.081 105.636 18.99 105.904 18.99C106.164 18.99 106.385 19.081 106.567 19.263C106.749 19.445 106.84 19.6703 106.84 19.939C106.84 20.2077 106.749 20.433 106.567 20.615C106.385 20.797 106.164 20.888 105.904 20.888ZM106.632 21.837V29H105.15V21.837H106.632ZM110.307 23.046V27.011C110.307 27.2797 110.368 27.4747 110.489 27.596C110.619 27.7087 110.836 27.765 111.139 27.765H112.049V29H110.879C110.212 29 109.7 28.844 109.345 28.532C108.99 28.22 108.812 27.713 108.812 27.011V23.046H107.967V21.837H108.812V20.056H110.307V21.837H112.049V23.046H110.307ZM119.863 21.837L115.469 32.367H113.935L115.391 28.883L112.57 21.837H114.221L116.236 27.297L118.329 21.837H119.863ZM132.145 19.965L128.752 29H127.036L123.63 19.965H125.216L127.894 27.479L130.585 19.965H132.145ZM134.139 20.888C133.87 20.888 133.645 20.797 133.463 20.615C133.281 20.433 133.19 20.2077 133.19 19.939C133.19 19.6703 133.281 19.445 133.463 19.263C133.645 19.081 133.87 18.99 134.139 18.99C134.399 18.99 134.62 19.081 134.802 19.263C134.984 19.445 135.075 19.6703 135.075 19.939C135.075 20.2077 134.984 20.433 134.802 20.615C134.62 20.797 134.399 20.888 134.139 20.888ZM134.867 21.837V29H133.385V21.837H134.867ZM136.318 25.386C136.318 24.6667 136.466 24.0297 136.76 23.475C137.064 22.9203 137.471 22.4913 137.982 22.188C138.502 21.876 139.079 21.72 139.711 21.72C140.179 21.72 140.639 21.824 141.089 22.032C141.549 22.2313 141.913 22.5 142.181 22.838V19.38H143.676V29H142.181V27.921C141.939 28.2677 141.601 28.5537 141.167 28.779C140.743 29.0043 140.253 29.117 139.698 29.117C139.074 29.117 138.502 28.961 137.982 28.649C137.471 28.3283 137.064 27.8863 136.76 27.323C136.466 26.751 136.318 26.1053 136.318 25.386ZM142.181 25.412C142.181 24.918 142.077 24.489 141.869 24.125C141.67 23.761 141.406 23.4837 141.076 23.293C140.747 23.1023 140.392 23.007 140.01 23.007C139.629 23.007 139.274 23.1023 138.944 23.293C138.615 23.475 138.346 23.748 138.138 24.112C137.939 24.4673 137.839 24.892 137.839 25.386C137.839 25.88 137.939 26.3133 138.138 26.686C138.346 27.0587 138.615 27.3447 138.944 27.544C139.282 27.7347 139.638 27.83 140.01 27.83C140.392 27.83 140.747 27.7347 141.076 27.544C141.406 27.3533 141.67 27.076 141.869 26.712C142.077 26.3393 142.181 25.906 142.181 25.412ZM152.188 25.243C152.188 25.5117 152.171 25.7543 152.136 25.971H146.663C146.706 26.543 146.919 27.0023 147.3 27.349C147.681 27.6957 148.149 27.869 148.704 27.869C149.501 27.869 150.065 27.5353 150.394 26.868H151.993C151.776 27.5267 151.382 28.0683 150.81 28.493C150.247 28.909 149.545 29.117 148.704 29.117C148.019 29.117 147.404 28.9653 146.858 28.662C146.321 28.35 145.896 27.9167 145.584 27.362C145.281 26.7987 145.129 26.1487 145.129 25.412C145.129 24.6753 145.276 24.0297 145.571 23.475C145.874 22.9117 146.295 22.4783 146.832 22.175C147.378 21.8717 148.002 21.72 148.704 21.72C149.38 21.72 149.982 21.8673 150.511 22.162C151.04 22.4567 151.451 22.8727 151.746 23.41C152.041 23.9387 152.188 24.5497 152.188 25.243ZM150.641 24.775C150.632 24.229 150.437 23.7913 150.056 23.462C149.675 23.1327 149.202 22.968 148.639 22.968C148.128 22.968 147.69 23.1327 147.326 23.462C146.962 23.7827 146.745 24.2203 146.676 24.775H150.641ZM156.753 29.117C156.077 29.117 155.466 28.9653 154.92 28.662C154.374 28.35 153.945 27.9167 153.633 27.362C153.321 26.7987 153.165 26.1487 153.165 25.412C153.165 24.684 153.326 24.0383 153.646 23.475C153.967 22.9117 154.405 22.4783 154.959 22.175C155.514 21.8717 156.134 21.72 156.818 21.72C157.503 21.72 158.123 21.8717 158.677 22.175C159.232 22.4783 159.67 22.9117 159.99 23.475C160.311 24.0383 160.471 24.684 160.471 25.412C160.471 26.14 160.307 26.7857 159.977 27.349C159.648 27.9123 159.197 28.35 158.625 28.662C158.062 28.9653 157.438 29.117 156.753 29.117ZM156.753 27.83C157.135 27.83 157.49 27.739 157.819 27.557C158.157 27.375 158.43 27.102 158.638 26.738C158.846 26.374 158.95 25.932 158.95 25.412C158.95 24.892 158.851 24.4543 158.651 24.099C158.452 23.735 158.188 23.462 157.858 23.28C157.529 23.098 157.174 23.007 156.792 23.007C156.411 23.007 156.056 23.098 155.726 23.28C155.406 23.462 155.15 23.735 154.959 24.099C154.769 24.4543 154.673 24.892 154.673 25.412C154.673 26.1833 154.868 26.7813 155.258 27.206C155.657 27.622 156.155 27.83 156.753 27.83Z" fill="url(#paint1_linear_24_45)"/>
<defs>
<linearGradient id="paint0_linear_24_45" x1="10" y1="24" x2="27.2436" y2="18.7897" gradientUnits="userSpaceOnUse">
<stop stop-color="#FF52AF"/>
<stop offset="1" stop-color="#9F53FF"/>
</linearGradient>
<linearGradient id="paint1_linear_24_45" x1="40" y1="24" x2="66.2214" y2="-23.9345" gradientUnits="userSpaceOnUse">
<stop stop-color="#FF52AF"/>
<stop offset="1" stop-color="#9F53FF"/>
</linearGradient>
</defs>
</svg>
