<svg width="88" height="88" viewBox="0 0 88 88" fill="none" xmlns="http://www.w3.org/2000/svg">
<rect width="88" height="88" rx="44" fill="url(#paint0_linear_8_116)"/>
<path d="M27.26 23.575V24.97H22.835V28.045H26.285V29.44H22.835V34H21.125V23.575H27.26ZM32.4297 34.135C31.6497 34.135 30.9447 33.96 30.3147 33.61C29.6847 33.25 29.1897 32.75 28.8297 32.11C28.4697 31.46 28.2897 30.71 28.2897 29.86C28.2897 29.02 28.4747 28.275 28.8447 27.625C29.2147 26.975 29.7197 26.475 30.3597 26.125C30.9997 25.775 31.7147 25.6 32.5047 25.6C33.2947 25.6 34.0097 25.775 34.6497 26.125C35.2897 26.475 35.7947 26.975 36.1647 27.625C36.5347 28.275 36.7197 29.02 36.7197 29.86C36.7197 30.7 36.5297 31.445 36.1497 32.095C35.7697 32.745 35.2497 33.25 34.5897 33.61C33.9397 33.96 33.2197 34.135 32.4297 34.135ZM32.4297 32.65C32.8697 32.65 33.2797 32.545 33.6597 32.335C34.0497 32.125 34.3647 31.81 34.6047 31.39C34.8447 30.97 34.9647 30.46 34.9647 29.86C34.9647 29.26 34.8497 28.755 34.6197 28.345C34.3897 27.925 34.0847 27.61 33.7047 27.4C33.3247 27.19 32.9147 27.085 32.4747 27.085C32.0347 27.085 31.6247 27.19 31.2447 27.4C30.8747 27.61 30.5797 27.925 30.3597 28.345C30.1397 28.755 30.0297 29.26 30.0297 29.86C30.0297 30.75 30.2547 31.44 30.7047 31.93C31.1647 32.41 31.7397 32.65 32.4297 32.65ZM40.1202 22.9V34H38.4102V22.9H40.1202ZM44.0752 22.9V34H42.3652V22.9H44.0752ZM49.9053 34.135C49.1253 34.135 48.4203 33.96 47.7903 33.61C47.1603 33.25 46.6653 32.75 46.3053 32.11C45.9453 31.46 45.7653 30.71 45.7653 29.86C45.7653 29.02 45.9503 28.275 46.3203 27.625C46.6903 26.975 47.1953 26.475 47.8353 26.125C48.4753 25.775 49.1903 25.6 49.9803 25.6C50.7703 25.6 51.4853 25.775 52.1253 26.125C52.7653 26.475 53.2703 26.975 53.6403 27.625C54.0103 28.275 54.1953 29.02 54.1953 29.86C54.1953 30.7 54.0053 31.445 53.6253 32.095C53.2453 32.745 52.7253 33.25 52.0653 33.61C51.4153 33.96 50.6953 34.135 49.9053 34.135ZM49.9053 32.65C50.3453 32.65 50.7553 32.545 51.1353 32.335C51.5253 32.125 51.8403 31.81 52.0803 31.39C52.3203 30.97 52.4403 30.46 52.4403 29.86C52.4403 29.26 52.3253 28.755 52.0953 28.345C51.8653 27.925 51.5603 27.61 51.1803 27.4C50.8003 27.19 50.3903 27.085 49.9503 27.085C49.5103 27.085 49.1003 27.19 48.7203 27.4C48.3503 27.61 48.0553 27.925 47.8353 28.345C47.6153 28.755 47.5053 29.26 47.5053 29.86C47.5053 30.75 47.7303 31.44 48.1803 31.93C48.6403 32.41 49.2153 32.65 49.9053 32.65ZM66.9857 25.735L64.4207 34H62.6207L60.9557 27.895L59.2907 34H57.4907L54.9107 25.735H56.6507L58.3757 32.38L60.1307 25.735H61.9157L63.5957 32.35L65.3057 25.735H66.9857Z" fill="white"/>
<path d="M48.172 58.9999L42.808 53.6359L44.222 52.2219L52 59.9999L44.222 67.7779L42.808 66.3639L48.172 60.9999H36V58.9999H48.172Z" fill="white"/>
<defs>
<linearGradient id="paint0_linear_8_116" x1="4.22181e-06" y1="44" x2="75.872" y2="21.0745" gradientUnits="userSpaceOnUse">
<stop stop-color="#FF52AF"/>
<stop offset="1" stop-color="#9F53FF"/>
</linearGradient>
</defs>
</svg>
