<svg width="11" height="11" viewBox="0 0 11 11" fill="none" xmlns="http://www.w3.org/2000/svg">
<path d="M5.49998 0.0834961C8.48998 0.0834961 10.9166 2.51016 10.9166 5.50016C10.9166 8.49016 8.48998 10.9168 5.49998 10.9168C2.50998 10.9168 0.083313 8.49016 0.083313 5.50016C0.083313 2.51016 2.50998 0.0834961 5.49998 0.0834961ZM5.49998 1.16683C3.10581 1.16683 1.16665 3.106 1.16665 5.50016C1.16665 7.89433 3.10581 9.8335 5.49998 9.8335C7.89415 9.8335 9.83331 7.89433 9.83331 5.50016C9.83331 3.106 7.89415 1.16683 5.49998 1.16683ZM5.49998 2.79183C6.48581 2.79183 7.34869 3.31887 7.82265 4.107L6.89423 4.66437C6.74812 4.42075 6.5407 4.21969 6.29265 4.08124C6.0446 3.94278 5.76459 3.87177 5.48054 3.87529C5.19649 3.8788 4.91832 3.95672 4.67378 4.10127C4.42923 4.24581 4.22685 4.45194 4.08681 4.6991C3.94677 4.94626 3.87398 5.22581 3.87567 5.50988C3.87737 5.79395 3.95351 6.07261 4.09649 6.31808C4.23948 6.56354 4.44431 6.76724 4.69057 6.90885C4.93683 7.05046 5.21591 7.12505 5.49998 7.12516C5.78063 7.12535 6.05655 7.05279 6.30081 6.91457C6.54507 6.77635 6.74933 6.57718 6.89369 6.3365L7.82265 6.89333C7.51824 7.40175 7.05545 7.79627 6.50527 8.01639C5.95509 8.23651 5.34789 8.27007 4.7768 8.11193C4.20571 7.95379 3.70226 7.61267 3.34368 7.14089C2.98509 6.66912 2.79117 6.09274 2.79165 5.50016C2.79165 4.00516 4.00498 2.79183 5.49998 2.79183Z" fill="#A197B4"/>
</svg>
