<svg width="138" height="54" viewBox="0 0 138 54" fill="none" xmlns="http://www.w3.org/2000/svg">
<rect width="138" height="54" rx="12" fill="white"/>
<circle cx="30" cy="27" r="18" fill="#FFE6E6"/>
<path d="M34.5 18C37.538 18 40 20.5 40 24C40 31 32.5 35 30 36.5C27.5 35 20 31 20 24C20 20.5 22.5 18 25.5 18C27.36 18 29 19 30 20C31 19 32.64 18 34.5 18Z" fill="#FF2D27"/>
<path d="M64.6461 13.965V23H63.1641V19.048H58.9131V23H57.4311V13.965H58.9131V17.839H63.1641V13.965H64.6461ZM73.1621 19.243C73.1621 19.5117 73.1447 19.7543 73.1101 19.971H67.6371C67.6804 20.543 67.8927 21.0023 68.2741 21.349C68.6554 21.6957 69.1234 21.869 69.6781 21.869C70.4754 21.869 71.0387 21.5353 71.3681 20.868H72.9671C72.7504 21.5267 72.3561 22.0683 71.7841 22.493C71.2207 22.909 70.5187 23.117 69.6781 23.117C68.9934 23.117 68.3781 22.9653 67.8321 22.662C67.2947 22.35 66.8701 21.9167 66.5581 21.362C66.2547 20.7987 66.1031 20.1487 66.1031 19.412C66.1031 18.6753 66.2504 18.0297 66.5451 17.475C66.8484 16.9117 67.2687 16.4783 67.8061 16.175C68.3521 15.8717 68.9761 15.72 69.6781 15.72C70.3541 15.72 70.9564 15.8673 71.4851 16.162C72.0137 16.4567 72.4254 16.8727 72.7201 17.41C73.0147 17.9387 73.1621 18.5497 73.1621 19.243ZM71.6151 18.775C71.6064 18.229 71.4114 17.7913 71.0301 17.462C70.6487 17.1327 70.1764 16.968 69.6131 16.968C69.1017 16.968 68.6641 17.1327 68.3001 17.462C67.9361 17.7827 67.7194 18.2203 67.6501 18.775H71.6151ZM74.1265 19.386C74.1265 18.6667 74.2738 18.0297 74.5685 17.475C74.8718 16.9203 75.2792 16.4913 75.7905 16.188C76.3105 15.876 76.8825 15.72 77.5065 15.72C78.0698 15.72 78.5595 15.8327 78.9755 16.058C79.4002 16.2747 79.7382 16.5477 79.9895 16.877V15.837H81.4845V23H79.9895V21.934C79.7382 22.272 79.3958 22.5537 78.9625 22.779C78.5292 23.0043 78.0352 23.117 77.4805 23.117C76.8652 23.117 76.3018 22.961 75.7905 22.649C75.2792 22.3283 74.8718 21.8863 74.5685 21.323C74.2738 20.751 74.1265 20.1053 74.1265 19.386ZM79.9895 19.412C79.9895 18.918 79.8855 18.489 79.6775 18.125C79.4782 17.761 79.2138 17.4837 78.8845 17.293C78.5552 17.1023 78.1998 17.007 77.8185 17.007C77.4372 17.007 77.0818 17.1023 76.7525 17.293C76.4232 17.475 76.1545 17.748 75.9465 18.112C75.7472 18.4673 75.6475 18.892 75.6475 19.386C75.6475 19.88 75.7472 20.3133 75.9465 20.686C76.1545 21.0587 76.4232 21.3447 76.7525 21.544C77.0905 21.7347 77.4458 21.83 77.8185 21.83C78.1998 21.83 78.5552 21.7347 78.8845 21.544C79.2138 21.3533 79.4782 21.076 79.6775 20.712C79.8855 20.3393 79.9895 19.906 79.9895 19.412ZM84.9131 16.877C85.1297 16.513 85.4157 16.2313 85.7711 16.032C86.1351 15.824 86.5641 15.72 87.0581 15.72V17.254H86.6811C86.1004 17.254 85.6584 17.4013 85.3551 17.696C85.0604 17.9907 84.9131 18.502 84.9131 19.23V23H83.4311V15.837H84.9131V16.877ZM90.1493 17.046V21.011C90.1493 21.2797 90.21 21.4747 90.3313 21.596C90.4613 21.7087 90.678 21.765 90.9813 21.765H91.8913V23H90.7213C90.054 23 89.5426 22.844 89.1873 22.532C88.832 22.22 88.6543 21.713 88.6543 21.011V17.046H87.8093V15.837H88.6543V14.056H90.1493V15.837H91.8913V17.046H90.1493ZM101.327 23L99.2472 19.386H98.1162V23H96.6342V13.965H99.7542C100.448 13.965 101.033 14.0863 101.509 14.329C101.995 14.5717 102.354 14.8967 102.588 15.304C102.831 15.7113 102.952 16.1663 102.952 16.669C102.952 17.2583 102.779 17.7957 102.432 18.281C102.094 18.7577 101.57 19.0827 100.859 19.256L103.095 23H101.327ZM98.1162 18.203H99.7542C100.309 18.203 100.725 18.0643 101.002 17.787C101.288 17.5097 101.431 17.137 101.431 16.669C101.431 16.201 101.293 15.837 101.015 15.577C100.738 15.3083 100.318 15.174 99.7542 15.174H98.1162V18.203ZM104.354 19.386C104.354 18.6667 104.501 18.0297 104.796 17.475C105.099 16.9203 105.507 16.4913 106.018 16.188C106.538 15.876 107.11 15.72 107.734 15.72C108.297 15.72 108.787 15.8327 109.203 16.058C109.628 16.2747 109.966 16.5477 110.217 16.877V15.837H111.712V23H110.217V21.934C109.966 22.272 109.623 22.5537 109.19 22.779C108.757 23.0043 108.263 23.117 107.708 23.117C107.093 23.117 106.529 22.961 106.018 22.649C105.507 22.3283 105.099 21.8863 104.796 21.323C104.501 20.751 104.354 20.1053 104.354 19.386ZM110.217 19.412C110.217 18.918 110.113 18.489 109.905 18.125C109.706 17.761 109.441 17.4837 109.112 17.293C108.783 17.1023 108.427 17.007 108.046 17.007C107.665 17.007 107.309 17.1023 106.98 17.293C106.651 17.475 106.382 17.748 106.174 18.112C105.975 18.4673 105.875 18.892 105.875 19.386C105.875 19.88 105.975 20.3133 106.174 20.686C106.382 21.0587 106.651 21.3447 106.98 21.544C107.318 21.7347 107.673 21.83 108.046 21.83C108.427 21.83 108.783 21.7347 109.112 21.544C109.441 21.3533 109.706 21.076 109.905 20.712C110.113 20.3393 110.217 19.906 110.217 19.412ZM115.388 17.046V21.011C115.388 21.2797 115.448 21.4747 115.57 21.596C115.7 21.7087 115.916 21.765 116.22 21.765H117.13V23H115.96C115.292 23 114.781 22.844 114.426 22.532C114.07 22.22 113.893 21.713 113.893 21.011V17.046H113.048V15.837H113.893V14.056H115.388V15.837H117.13V17.046H115.388ZM125.061 19.243C125.061 19.5117 125.043 19.7543 125.009 19.971H119.536C119.579 20.543 119.791 21.0023 120.173 21.349C120.554 21.6957 121.022 21.869 121.577 21.869C122.374 21.869 122.937 21.5353 123.267 20.868H124.866C124.649 21.5267 124.255 22.0683 123.683 22.493C123.119 22.909 122.417 23.117 121.577 23.117C120.892 23.117 120.277 22.9653 119.731 22.662C119.193 22.35 118.769 21.9167 118.457 21.362C118.153 20.7987 118.002 20.1487 118.002 19.412C118.002 18.6753 118.149 18.0297 118.444 17.475C118.747 16.9117 119.167 16.4783 119.705 16.175C120.251 15.8717 120.875 15.72 121.577 15.72C122.253 15.72 122.855 15.8673 123.384 16.162C123.912 16.4567 124.324 16.8727 124.619 17.41C124.913 17.9387 125.061 18.5497 125.061 19.243ZM123.514 18.775C123.505 18.229 123.31 17.7913 122.929 17.462C122.547 17.1327 122.075 16.968 121.512 16.968C121 16.968 120.563 17.1327 120.199 17.462C119.835 17.7827 119.618 18.2203 119.549 18.775H123.514Z" fill="#220953"/>
<path d="M56.8408 33.5V32.252H59.3368V41H57.9568V33.5H56.8408ZM65.9201 34.28C65.8321 33.912 65.6721 33.636 65.4401 33.452C65.2081 33.268 64.8841 33.176 64.4681 33.176C63.8361 33.176 63.3641 33.42 63.0521 33.908C62.7401 34.388 62.5761 35.188 62.5601 36.308C62.7681 35.956 63.0721 35.684 63.4721 35.492C63.8721 35.3 64.3041 35.204 64.7681 35.204C65.2961 35.204 65.7601 35.32 66.1601 35.552C66.5681 35.776 66.8841 36.104 67.1081 36.536C67.3401 36.968 67.4561 37.484 67.4561 38.084C67.4561 38.644 67.3441 39.144 67.1201 39.584C66.9041 40.024 66.5801 40.372 66.1481 40.628C65.7161 40.876 65.1961 41 64.5881 41C63.7641 41 63.1161 40.82 62.6441 40.46C62.1801 40.092 61.8521 39.576 61.6601 38.912C61.4761 38.248 61.3841 37.42 61.3841 36.428C61.3841 33.5 62.4161 32.036 64.4801 32.036C65.2801 32.036 65.9081 32.252 66.3641 32.684C66.8281 33.116 67.1001 33.648 67.1801 34.28H65.9201ZM64.4681 36.356C63.9801 36.356 63.5641 36.504 63.2201 36.8C62.8841 37.088 62.7161 37.508 62.7161 38.06C62.7161 38.612 62.8721 39.052 63.1841 39.38C63.5041 39.7 63.9481 39.86 64.5161 39.86C65.0201 39.86 65.4161 39.704 65.7041 39.392C66.0001 39.08 66.1481 38.664 66.1481 38.144C66.1481 37.6 66.0041 37.168 65.7161 36.848C65.4361 36.52 65.0201 36.356 64.4681 36.356ZM70.3913 36.428C69.5593 36.012 69.1433 35.356 69.1433 34.46C69.1433 34.028 69.2513 33.632 69.4673 33.272C69.6833 32.912 70.0073 32.628 70.4393 32.42C70.8713 32.204 71.3993 32.096 72.0233 32.096C72.6393 32.096 73.1633 32.204 73.5953 32.42C74.0353 32.628 74.3633 32.912 74.5793 33.272C74.7953 33.632 74.9033 34.028 74.9033 34.46C74.9033 34.908 74.7873 35.304 74.5553 35.648C74.3313 35.984 74.0313 36.244 73.6553 36.428C74.1113 36.596 74.4713 36.872 74.7353 37.256C74.9993 37.632 75.1313 38.076 75.1313 38.588C75.1313 39.108 74.9993 39.568 74.7353 39.968C74.4713 40.368 74.1033 40.676 73.6313 40.892C73.1593 41.108 72.6233 41.216 72.0233 41.216C71.4233 41.216 70.8873 41.108 70.4153 40.892C69.9513 40.676 69.5873 40.368 69.3233 39.968C69.0593 39.568 68.9273 39.108 68.9273 38.588C68.9273 38.068 69.0593 37.62 69.3233 37.244C69.5873 36.868 69.9433 36.596 70.3913 36.428ZM73.5953 34.628C73.5953 34.18 73.4553 33.836 73.1753 33.596C72.8953 33.356 72.5113 33.236 72.0233 33.236C71.5433 33.236 71.1633 33.356 70.8833 33.596C70.6033 33.836 70.4633 34.184 70.4633 34.64C70.4633 35.04 70.6073 35.368 70.8953 35.624C71.1913 35.872 71.5673 35.996 72.0233 35.996C72.4793 35.996 72.8553 35.868 73.1513 35.612C73.4473 35.356 73.5953 35.028 73.5953 34.628ZM72.0233 37.028C71.4953 37.028 71.0633 37.16 70.7273 37.424C70.3993 37.68 70.2353 38.052 70.2353 38.54C70.2353 38.996 70.3953 39.368 70.7153 39.656C71.0353 39.936 71.4713 40.076 72.0233 40.076C72.5673 40.076 72.9953 39.932 73.3073 39.644C73.6273 39.356 73.7873 38.988 73.7873 38.54C73.7873 38.06 73.6233 37.688 73.2953 37.424C72.9753 37.16 72.5513 37.028 72.0233 37.028ZM81.2328 35.372C81.4648 35.052 81.7808 34.792 82.1808 34.592C82.5888 34.384 83.0408 34.28 83.5368 34.28C84.1208 34.28 84.6488 34.42 85.1208 34.7C85.5928 34.98 85.9648 35.38 86.2368 35.9C86.5088 36.412 86.6448 37 86.6448 37.664C86.6448 38.328 86.5088 38.924 86.2368 39.452C85.9648 39.972 85.5888 40.38 85.1088 40.676C84.6368 40.964 84.1128 41.108 83.5368 41.108C83.0248 41.108 82.5688 41.008 82.1688 40.808C81.7768 40.608 81.4648 40.352 81.2328 40.04V41H79.8648V32.12H81.2328V35.372ZM85.2528 37.664C85.2528 37.208 85.1568 36.816 84.9648 36.488C84.7808 36.152 84.5328 35.9 84.2208 35.732C83.9168 35.556 83.5888 35.468 83.2368 35.468C82.8928 35.468 82.5648 35.556 82.2528 35.732C81.9488 35.908 81.7008 36.164 81.5088 36.5C81.3248 36.836 81.2328 37.232 81.2328 37.688C81.2328 38.144 81.3248 38.544 81.5088 38.888C81.7008 39.224 81.9488 39.48 82.2528 39.656C82.5648 39.832 82.8928 39.92 83.2368 39.92C83.5888 39.92 83.9168 39.832 84.2208 39.656C84.5328 39.472 84.7808 39.208 84.9648 38.864C85.1568 38.52 85.2528 38.12 85.2528 37.664ZM89.3657 35.36C89.5977 35.056 89.9137 34.8 90.3137 34.592C90.7137 34.384 91.1657 34.28 91.6697 34.28C92.2457 34.28 92.7697 34.424 93.2417 34.712C93.7217 34.992 94.0977 35.388 94.3697 35.9C94.6417 36.412 94.7777 37 94.7777 37.664C94.7777 38.328 94.6417 38.924 94.3697 39.452C94.0977 39.972 93.7217 40.38 93.2417 40.676C92.7697 40.964 92.2457 41.108 91.6697 41.108C91.1657 41.108 90.7177 41.008 90.3257 40.808C89.9337 40.6 89.6137 40.344 89.3657 40.04V44.144H87.9977V34.388H89.3657V35.36ZM93.3857 37.664C93.3857 37.208 93.2897 36.816 93.0977 36.488C92.9137 36.152 92.6657 35.9 92.3537 35.732C92.0497 35.556 91.7217 35.468 91.3697 35.468C91.0257 35.468 90.6977 35.556 90.3857 35.732C90.0817 35.908 89.8337 36.164 89.6417 36.5C89.4577 36.836 89.3657 37.232 89.3657 37.688C89.3657 38.144 89.4577 38.544 89.6417 38.888C89.8337 39.224 90.0817 39.48 90.3857 39.656C90.6977 39.832 91.0257 39.92 91.3697 39.92C91.7217 39.92 92.0497 39.832 92.3537 39.656C92.6657 39.472 92.9137 39.208 93.0977 38.864C93.2897 38.52 93.3857 38.12 93.3857 37.664ZM104.134 34.28C104.654 34.28 105.118 34.388 105.526 34.604C105.942 34.82 106.266 35.14 106.498 35.564C106.738 35.988 106.858 36.5 106.858 37.1V41H105.502V37.304C105.502 36.712 105.354 36.26 105.058 35.948C104.762 35.628 104.358 35.468 103.846 35.468C103.334 35.468 102.926 35.628 102.622 35.948C102.326 36.26 102.178 36.712 102.178 37.304V41H100.822V37.304C100.822 36.712 100.674 36.26 100.378 35.948C100.082 35.628 99.6785 35.468 99.1665 35.468C98.6545 35.468 98.2465 35.628 97.9425 35.948C97.6465 36.26 97.4985 36.712 97.4985 37.304V41H96.1305V34.388H97.4985V35.144C97.7225 34.872 98.0065 34.66 98.3505 34.508C98.6945 34.356 99.0625 34.28 99.4545 34.28C99.9825 34.28 100.454 34.392 100.87 34.616C101.286 34.84 101.606 35.164 101.83 35.588C102.03 35.188 102.342 34.872 102.766 34.64C103.19 34.4 103.646 34.28 104.134 34.28Z" fill="url(#paint0_linear_24_18)"/>
<defs>
<linearGradient id="paint0_linear_24_18" x1="56" y1="37" x2="83.7683" y2="12.7609" gradientUnits="userSpaceOnUse">
<stop stop-color="#FF52AF"/>
<stop offset="1" stop-color="#9F53FF"/>
</linearGradient>
</defs>
</svg>
