<svg width="109" height="54" viewBox="0 0 109 54" fill="none" xmlns="http://www.w3.org/2000/svg">
<rect width="109" height="54" rx="12" fill="white"/>
<path d="M18.36 13.428H14.34V15.816C14.508 15.592 14.756 15.404 15.084 15.252C15.42 15.1 15.776 15.024 16.152 15.024C16.824 15.024 17.368 15.168 17.784 15.456C18.208 15.744 18.508 16.108 18.684 16.548C18.868 16.988 18.96 17.452 18.96 17.94C18.96 18.532 18.844 19.06 18.612 19.524C18.388 19.98 18.048 20.34 17.592 20.604C17.144 20.868 16.592 21 15.936 21C15.064 21 14.364 20.784 13.836 20.352C13.308 19.92 12.992 19.348 12.888 18.636H14.22C14.308 19.012 14.504 19.312 14.808 19.536C15.112 19.752 15.492 19.86 15.948 19.86C16.516 19.86 16.94 19.688 17.22 19.344C17.508 19 17.652 18.544 17.652 17.976C17.652 17.4 17.508 16.96 17.22 16.656C16.932 16.344 16.508 16.188 15.948 16.188C15.556 16.188 15.224 16.288 14.952 16.488C14.688 16.68 14.496 16.944 14.376 17.28H13.08V12.228H18.36V13.428ZM20.3841 16.512C20.3841 15.128 20.6161 14.048 21.0801 13.272C21.5521 12.488 22.3601 12.096 23.5041 12.096C24.6481 12.096 25.4521 12.488 25.9161 13.272C26.3881 14.048 26.6241 15.128 26.6241 16.512C26.6241 17.912 26.3881 19.008 25.9161 19.8C25.4521 20.584 24.6481 20.976 23.5041 20.976C22.3601 20.976 21.5521 20.584 21.0801 19.8C20.6161 19.008 20.3841 17.912 20.3841 16.512ZM25.2801 16.512C25.2801 15.864 25.2361 15.316 25.1481 14.868C25.0681 14.42 24.9001 14.056 24.6441 13.776C24.3881 13.488 24.0081 13.344 23.5041 13.344C23.0001 13.344 22.6201 13.488 22.3641 13.776C22.1081 14.056 21.9361 14.42 21.8481 14.868C21.7681 15.316 21.7281 15.864 21.7281 16.512C21.7281 17.184 21.7681 17.748 21.8481 18.204C21.9281 18.66 22.0961 19.028 22.3521 19.308C22.6161 19.588 23.0001 19.728 23.5041 19.728C24.0081 19.728 24.3881 19.588 24.6441 19.308C24.9081 19.028 25.0801 18.66 25.1601 18.204C25.2401 17.748 25.2801 17.184 25.2801 16.512ZM28.0716 16.512C28.0716 15.128 28.3036 14.048 28.7676 13.272C29.2396 12.488 30.0476 12.096 31.1916 12.096C32.3356 12.096 33.1396 12.488 33.6036 13.272C34.0756 14.048 34.3116 15.128 34.3116 16.512C34.3116 17.912 34.0756 19.008 33.6036 19.8C33.1396 20.584 32.3356 20.976 31.1916 20.976C30.0476 20.976 29.2396 20.584 28.7676 19.8C28.3036 19.008 28.0716 17.912 28.0716 16.512ZM32.9676 16.512C32.9676 15.864 32.9236 15.316 32.8356 14.868C32.7556 14.42 32.5876 14.056 32.3316 13.776C32.0756 13.488 31.6956 13.344 31.1916 13.344C30.6876 13.344 30.3076 13.488 30.0516 13.776C29.7956 14.056 29.6236 14.42 29.5356 14.868C29.4556 15.316 29.4156 15.864 29.4156 16.512C29.4156 17.184 29.4556 17.748 29.5356 18.204C29.6156 18.66 29.7836 19.028 30.0396 19.308C30.3036 19.588 30.6876 19.728 31.1916 19.728C31.6956 19.728 32.0756 19.588 32.3316 19.308C32.5956 19.028 32.7676 18.66 32.8476 18.204C32.9276 17.748 32.9676 17.184 32.9676 16.512ZM42.3831 17.244H39.9591V19.728H38.6871V17.244H36.2631V16.092H38.6871V13.608H39.9591V16.092H42.3831V17.244Z" fill="url(#paint0_linear_24_28)"/>
<path d="M18.5 31.965V33.174H14.665V35.839H17.655V37.048H14.665V41H13.183V31.965H18.5ZM21.3554 34.877C21.5721 34.513 21.8581 34.2313 22.2134 34.032C22.5774 33.824 23.0064 33.72 23.5004 33.72V35.254H23.1234C22.5428 35.254 22.1008 35.4013 21.7974 35.696C21.5028 35.9907 21.3554 36.502 21.3554 37.23V41H19.8734V33.837H21.3554V34.877ZM31.4277 37.243C31.4277 37.5117 31.4104 37.7543 31.3757 37.971H25.9027C25.946 38.543 26.1584 39.0023 26.5397 39.349C26.921 39.6957 27.389 39.869 27.9437 39.869C28.741 39.869 29.3044 39.5353 29.6337 38.868H31.2327C31.016 39.5267 30.6217 40.0683 30.0497 40.493C29.4864 40.909 28.7844 41.117 27.9437 41.117C27.259 41.117 26.6437 40.9653 26.0977 40.662C25.5604 40.35 25.1357 39.9167 24.8237 39.362C24.5204 38.7987 24.3687 38.1487 24.3687 37.412C24.3687 36.6753 24.516 36.0297 24.8107 35.475C25.114 34.9117 25.5344 34.4783 26.0717 34.175C26.6177 33.8717 27.2417 33.72 27.9437 33.72C28.6197 33.72 29.222 33.8673 29.7507 34.162C30.2794 34.4567 30.691 34.8727 30.9857 35.41C31.2804 35.9387 31.4277 36.5497 31.4277 37.243ZM29.8807 36.775C29.872 36.229 29.677 35.7913 29.2957 35.462C28.9144 35.1327 28.442 34.968 27.8787 34.968C27.3674 34.968 26.9297 35.1327 26.5657 35.462C26.2017 35.7827 25.985 36.2203 25.9157 36.775H29.8807ZM39.4511 37.243C39.4511 37.5117 39.4338 37.7543 39.3991 37.971H33.9261C33.9695 38.543 34.1818 39.0023 34.5631 39.349C34.9445 39.6957 35.4125 39.869 35.9671 39.869C36.7645 39.869 37.3278 39.5353 37.6571 38.868H39.2561C39.0395 39.5267 38.6451 40.0683 38.0731 40.493C37.5098 40.909 36.8078 41.117 35.9671 41.117C35.2825 41.117 34.6671 40.9653 34.1211 40.662C33.5838 40.35 33.1591 39.9167 32.8471 39.362C32.5438 38.7987 32.3921 38.1487 32.3921 37.412C32.3921 36.6753 32.5395 36.0297 32.8341 35.475C33.1375 34.9117 33.5578 34.4783 34.0951 34.175C34.6411 33.8717 35.2651 33.72 35.9671 33.72C36.6431 33.72 37.2455 33.8673 37.7741 34.162C38.3028 34.4567 38.7145 34.8727 39.0091 35.41C39.3038 35.9387 39.4511 36.5497 39.4511 37.243ZM37.9041 36.775C37.8955 36.229 37.7005 35.7913 37.3191 35.462C36.9378 35.1327 36.4655 34.968 35.9021 34.968C35.3908 34.968 34.9531 35.1327 34.5891 35.462C34.2251 35.7827 34.0085 36.2203 33.9391 36.775H37.9041ZM43.7925 36.463C43.7925 35.579 43.9962 34.786 44.4035 34.084C44.8195 33.382 45.3785 32.836 46.0805 32.446C46.7912 32.0473 47.5669 31.848 48.4075 31.848C49.3695 31.848 50.2232 32.0863 50.9685 32.563C51.7225 33.031 52.2685 33.6983 52.6065 34.565H50.8255C50.5915 34.0883 50.2665 33.733 49.8505 33.499C49.4345 33.265 48.9535 33.148 48.4075 33.148C47.8095 33.148 47.2765 33.2823 46.8085 33.551C46.3405 33.8197 45.9722 34.2053 45.7035 34.708C45.4435 35.2107 45.3135 35.7957 45.3135 36.463C45.3135 37.1303 45.4435 37.7153 45.7035 38.218C45.9722 38.7207 46.3405 39.1107 46.8085 39.388C47.2765 39.6567 47.8095 39.791 48.4075 39.791C48.9535 39.791 49.4345 39.674 49.8505 39.44C50.2665 39.206 50.5915 38.8507 50.8255 38.374H52.6065C52.2685 39.2407 51.7225 39.908 50.9685 40.376C50.2232 40.844 49.3695 41.078 48.4075 41.078C47.5582 41.078 46.7825 40.883 46.0805 40.493C45.3785 40.0943 44.8195 39.544 44.4035 38.842C43.9962 38.14 43.7925 37.347 43.7925 36.463ZM57.4482 41.117C56.7722 41.117 56.1612 40.9653 55.6152 40.662C55.0692 40.35 54.6402 39.9167 54.3282 39.362C54.0162 38.7987 53.8602 38.1487 53.8602 37.412C53.8602 36.684 54.0205 36.0383 54.3412 35.475C54.6619 34.9117 55.0995 34.4783 55.6542 34.175C56.2089 33.8717 56.8285 33.72 57.5132 33.72C58.1979 33.72 58.8175 33.8717 59.3722 34.175C59.9269 34.4783 60.3645 34.9117 60.6852 35.475C61.0059 36.0383 61.1662 36.684 61.1662 37.412C61.1662 38.14 61.0015 38.7857 60.6722 39.349C60.3429 39.9123 59.8922 40.35 59.3202 40.662C58.7569 40.9653 58.1329 41.117 57.4482 41.117ZM57.4482 39.83C57.8295 39.83 58.1849 39.739 58.5142 39.557C58.8522 39.375 59.1252 39.102 59.3332 38.738C59.5412 38.374 59.6452 37.932 59.6452 37.412C59.6452 36.892 59.5455 36.4543 59.3462 36.099C59.1469 35.735 58.8825 35.462 58.5532 35.28C58.2239 35.098 57.8685 35.007 57.4872 35.007C57.1059 35.007 56.7505 35.098 56.4212 35.28C56.1005 35.462 55.8449 35.735 55.6542 36.099C55.4635 36.4543 55.3682 36.892 55.3682 37.412C55.3682 38.1833 55.5632 38.7813 55.9532 39.206C56.3519 39.622 56.8502 39.83 57.4482 39.83ZM69.1183 33.837V41H67.6363V40.155C67.4023 40.4497 67.0946 40.6837 66.7133 40.857C66.3406 41.0217 65.9419 41.104 65.5173 41.104C64.9539 41.104 64.4469 40.987 63.9963 40.753C63.5543 40.519 63.2033 40.1723 62.9433 39.713C62.6919 39.2537 62.5663 38.699 62.5663 38.049V33.837H64.0353V37.828C64.0353 38.4693 64.1956 38.9633 64.5163 39.31C64.8369 39.648 65.2746 39.817 65.8293 39.817C66.3839 39.817 66.8216 39.648 67.1423 39.31C67.4716 38.9633 67.6363 38.4693 67.6363 37.828V33.837H69.1183ZM72.5556 34.877C72.7723 34.513 73.0583 34.2313 73.4136 34.032C73.7776 33.824 74.2066 33.72 74.7006 33.72V35.254H74.3236C73.743 35.254 73.301 35.4013 72.9976 35.696C72.703 35.9907 72.5556 36.502 72.5556 37.23V41H71.0736V33.837H72.5556V34.877ZM78.6629 41.117C78.0996 41.117 77.5926 41.0173 77.1419 40.818C76.6999 40.61 76.3489 40.3327 76.0889 39.986C75.8289 39.6307 75.6902 39.2363 75.6729 38.803H77.2069C77.2329 39.1063 77.3759 39.362 77.6359 39.57C77.9046 39.7693 78.2382 39.869 78.6369 39.869C79.0529 39.869 79.3736 39.791 79.5989 39.635C79.8329 39.4703 79.9499 39.2623 79.9499 39.011C79.9499 38.7423 79.8199 38.543 79.5599 38.413C79.3086 38.283 78.9056 38.14 78.3509 37.984C77.8136 37.8367 77.3759 37.6937 77.0379 37.555C76.6999 37.4163 76.4052 37.204 76.1539 36.918C75.9112 36.632 75.7899 36.255 75.7899 35.787C75.7899 35.4057 75.9026 35.059 76.1279 34.747C76.3532 34.4263 76.6739 34.175 77.0899 33.993C77.5146 33.811 77.9999 33.72 78.5459 33.72C79.3606 33.72 80.0149 33.928 80.5089 34.344C81.0116 34.7513 81.2802 35.3103 81.3149 36.021H79.8329C79.8069 35.7003 79.6769 35.4447 79.4429 35.254C79.2089 35.0633 78.8926 34.968 78.4939 34.968C78.1039 34.968 77.8049 35.0417 77.5969 35.189C77.3889 35.3363 77.2849 35.5313 77.2849 35.774C77.2849 35.9647 77.3542 36.125 77.4929 36.255C77.6316 36.385 77.8006 36.489 77.9999 36.567C78.1992 36.6363 78.4939 36.7273 78.8839 36.84C79.4039 36.9787 79.8286 37.1217 80.1579 37.269C80.4959 37.4077 80.7862 37.6157 81.0289 37.893C81.2716 38.1703 81.3972 38.5387 81.4059 38.998C81.4059 39.4053 81.2932 39.7693 81.0679 40.09C80.8426 40.4107 80.5219 40.662 80.1059 40.844C79.6986 41.026 79.2176 41.117 78.6629 41.117ZM89.5722 37.243C89.5722 37.5117 89.5549 37.7543 89.5202 37.971H84.0472C84.0906 38.543 84.3029 39.0023 84.6842 39.349C85.0656 39.6957 85.5336 39.869 86.0882 39.869C86.8856 39.869 87.4489 39.5353 87.7782 38.868H89.3772C89.1606 39.5267 88.7662 40.0683 88.1942 40.493C87.6309 40.909 86.9289 41.117 86.0882 41.117C85.4036 41.117 84.7882 40.9653 84.2422 40.662C83.7049 40.35 83.2802 39.9167 82.9682 39.362C82.6649 38.7987 82.5132 38.1487 82.5132 37.412C82.5132 36.6753 82.6606 36.0297 82.9552 35.475C83.2586 34.9117 83.6789 34.4783 84.2162 34.175C84.7622 33.8717 85.3862 33.72 86.0882 33.72C86.7642 33.72 87.3666 33.8673 87.8952 34.162C88.4239 34.4567 88.8356 34.8727 89.1302 35.41C89.4249 35.9387 89.5722 36.5497 89.5722 37.243ZM88.0252 36.775C88.0166 36.229 87.8216 35.7913 87.4402 35.462C87.0589 35.1327 86.5866 34.968 86.0232 34.968C85.5119 34.968 85.0742 35.1327 84.7102 35.462C84.3462 35.7827 84.1296 36.2203 84.0602 36.775H88.0252ZM93.6307 41.117C93.0673 41.117 92.5603 41.0173 92.1097 40.818C91.6677 40.61 91.3167 40.3327 91.0567 39.986C90.7967 39.6307 90.658 39.2363 90.6407 38.803H92.1747C92.2007 39.1063 92.3437 39.362 92.6037 39.57C92.8723 39.7693 93.206 39.869 93.6047 39.869C94.0207 39.869 94.3413 39.791 94.5667 39.635C94.8007 39.4703 94.9177 39.2623 94.9177 39.011C94.9177 38.7423 94.7877 38.543 94.5277 38.413C94.2763 38.283 93.8733 38.14 93.3187 37.984C92.7813 37.8367 92.3437 37.6937 92.0057 37.555C91.6677 37.4163 91.373 37.204 91.1217 36.918C90.879 36.632 90.7577 36.255 90.7577 35.787C90.7577 35.4057 90.8703 35.059 91.0957 34.747C91.321 34.4263 91.6417 34.175 92.0577 33.993C92.4823 33.811 92.9677 33.72 93.5137 33.72C94.3283 33.72 94.9827 33.928 95.4767 34.344C95.9793 34.7513 96.248 35.3103 96.2827 36.021H94.8007C94.7747 35.7003 94.6447 35.4447 94.4107 35.254C94.1767 35.0633 93.8603 34.968 93.4617 34.968C93.0717 34.968 92.7727 35.0417 92.5647 35.189C92.3567 35.3363 92.2527 35.5313 92.2527 35.774C92.2527 35.9647 92.322 36.125 92.4607 36.255C92.5993 36.385 92.7683 36.489 92.9677 36.567C93.167 36.6363 93.4617 36.7273 93.8517 36.84C94.3717 36.9787 94.7963 37.1217 95.1257 37.269C95.4637 37.4077 95.754 37.6157 95.9967 37.893C96.2393 38.1703 96.365 38.5387 96.3737 38.998C96.3737 39.4053 96.261 39.7693 96.0357 40.09C95.8103 40.4107 95.4897 40.662 95.0737 40.844C94.6663 41.026 94.1853 41.117 93.6307 41.117Z" fill="#220953"/>
<defs>
<linearGradient id="paint0_linear_24_28" x1="12" y1="17" x2="35.3663" y2="4.44823" gradientUnits="userSpaceOnUse">
<stop stop-color="#FF52AF"/>
<stop offset="1" stop-color="#9F53FF"/>
</linearGradient>
</defs>
</svg>
