<svg width="17" height="50" viewBox="0 0 17 50" fill="none" xmlns="http://www.w3.org/2000/svg">
<path d="M16.0232 25C16.0232 31.704 15.1297 37.7425 13.7054 42.0792C12.992 44.2516 12.1587 45.9554 11.2696 47.1005C10.3729 48.2553 9.50909 48.7346 8.73197 48.7346C7.95485 48.7346 7.09103 48.2553 6.19435 47.1005C5.30523 45.9554 4.47198 44.2516 3.75851 42.0792C2.33424 37.7425 1.44073 31.704 1.44073 25C1.44073 18.296 2.33424 12.2576 3.75851 7.92085C4.47198 5.74843 5.30523 4.04464 6.19435 2.89956C7.09103 1.74475 7.95485 1.26547 8.73197 1.26547C9.50909 1.26547 10.3729 1.74475 11.2696 2.89956C12.1587 4.04464 12.992 5.74843 13.7054 7.92085C15.1297 12.2576 16.0232 18.296 16.0232 25Z" stroke="url(#paint0_linear_17_47)" stroke-width="1.5"/>
<defs>
<linearGradient id="paint0_linear_17_47" x1="0.690735" y1="25" x2="15.1595" y2="23.0803" gradientUnits="userSpaceOnUse">
<stop stop-color="#FF62B7"/>
<stop offset="1" stop-color="#9F53FF"/>
</linearGradient>
</defs>
</svg>
