<svg width="52" height="16" viewBox="0 0 52 16" fill="none" xmlns="http://www.w3.org/2000/svg">
<path d="M26 14.7242C19.021 14.7242 12.7319 13.8643 8.21221 12.4919C5.9477 11.8043 4.16976 11.0007 2.97456 10.1426C1.76137 9.2717 1.28609 8.45038 1.28609 7.74227C1.28609 7.03417 1.76137 6.21285 2.97456 5.34191C4.16976 4.48388 5.9477 3.6802 8.21221 2.9926C12.7319 1.62024 19.021 0.760315 26 0.760315C32.979 0.760315 39.2682 1.62024 43.7878 2.9926C46.0523 3.6802 47.8303 4.48388 49.0255 5.34191C50.2387 6.21285 50.7139 7.03417 50.7139 7.74227C50.7139 8.45038 50.2387 9.2717 49.0255 10.1426C47.8303 11.0007 46.0523 11.8043 43.7878 12.4919C39.2682 13.8643 32.979 14.7242 26 14.7242Z" stroke="url(#paint0_linear_17_48)" stroke-width="1.5"/>
<defs>
<linearGradient id="paint0_linear_17_48" x1="26" y1="0.0103149" x2="27.7109" y2="13.9576" gradientUnits="userSpaceOnUse">
<stop stop-color="#FF62B7"/>
<stop offset="1" stop-color="#9F53FF"/>
</linearGradient>
</defs>
</svg>
